HIERARCHY
ROOT Hips
{
 OFFSET 0.000000 0.000000 0.000000
 CHANNELS 6 Xposition Yposition Zposition Yrotation Xrotation Zrotation
 JOINT Chest
 {
  OFFSET 0.000000 9.581000 -0.001100
  CHANNELS 3 Yrotation Xrotation Zrotation
  JOINT Chest2
  {
   OFFSET 0.000000 9.561100 0.002200
   CHANNELS 3 Yrotation Xrotation Zrotation
   JOINT Chest3
   {
    OFFSET 0.000000 9.521100 0.000000
    CHANNELS 3 Yrotation Xrotation Zrotation
    JOINT Chest4
    {
     OFFSET 0.000000 9.511400 0.000000
     CHANNELS 3 Yrotation Xrotation Zrotation
     JOINT Neck
     {
      OFFSET 0.000000 14.375100 0.000000
      CHANNELS 3 Yrotation Xrotation Zrotation
      JOINT Head
      {
       OFFSET 0.000000 8.901200 0.004600
       CHANNELS 3 Yrotation Xrotation Zrotation
       End Site
       {
        OFFSET 0.000000 16.962200 0.002400
       }
      }
     }
     JOINT RightCollar
     {
      OFFSET -2.920100 9.518800 0.000000
      CHANNELS 3 Yrotation Xrotation Zrotation
      JOINT RightShoulder
      {
       OFFSET -13.664500 0.000000 0.000000
       CHANNELS 3 Yrotation Xrotation Zrotation
       JOINT RightElbow
       {
        OFFSET 0.000000 -29.999200 0.000000
        CHANNELS 3 Yrotation Xrotation Zrotation
        JOINT RightWrist
        {
         OFFSET 0.000000 -24.253600 0.000000
         CHANNELS 3 Yrotation Xrotation Zrotation
         End Site
         {
          OFFSET 0.000000 -17.918900 0.000000
         }
        }
       }
      }
     }
     JOINT LeftCollar
     {
      OFFSET 2.920100 9.518800 0.000000
      CHANNELS 3 Yrotation Xrotation Zrotation
      JOINT LeftShoulder
      {
       OFFSET 13.664500 0.000000 0.000000
       CHANNELS 3 Yrotation Xrotation Zrotation
       JOINT LeftElbow
       {
        OFFSET 0.000000 -29.999200 0.000000
        CHANNELS 3 Yrotation Xrotation Zrotation
        JOINT LeftWrist
        {
         OFFSET 0.000000 -24.253600 0.000000
         CHANNELS 3 Yrotation Xrotation Zrotation
         End Site
         {
          OFFSET 0.000000 -17.918900 0.000000
         }
        }
       }
      }
     }
    }
   }
  }
 }
 JOINT RightHip
 {
  OFFSET -7.797300 0.005300 0.000500
  CHANNELS 3 Yrotation Xrotation Zrotation
  JOINT RightKnee
  {
   OFFSET 0.000000 -40.663400 -0.000500
   CHANNELS 3 Yrotation Xrotation Zrotation
   JOINT RightAnkle
   {
    OFFSET 0.000000 -39.523700 -0.000900
    CHANNELS 3 Yrotation Xrotation Zrotation
    JOINT RightToe
    {
     OFFSET 0.000000 -6.418000 14.485300
     CHANNELS 3 Yrotation Xrotation Zrotation
     End Site
     {
      OFFSET 0.000000 -1.465200 6.326400
     }
    }
   }
  }
 }
 JOINT LeftHip
 {
  OFFSET 7.797300 0.005300 0.000500
  CHANNELS 3 Yrotation Xrotation Zrotation
  JOINT LeftKnee
  {
   OFFSET 0.000000 -40.663400 -0.000500
   CHANNELS 3 Yrotation Xrotation Zrotation
   JOINT LeftAnkle
   {
    OFFSET 0.000000 -39.523700 -0.000900
    CHANNELS 3 Yrotation Xrotation Zrotation
    JOINT LeftToe
    {
     OFFSET 0.000000 -6.418000 14.485300
     CHANNELS 3 Yrotation Xrotation Zrotation
     End Site
     {
      OFFSET 0.000000 -1.465200 6.326400
     }
    }
   }
  }
 }
}
MOTION
Frames: 15
Frame Time: 0.008333
0.000000 86.422400 0.000000 0.000000 -5.767877 0.000000 0.000000 11.653817 0.000000 0.000000 -5.885947 0.000000 0.000000 -0.000000 0.000000 0.000000 -0.000000 0.000000 0.000000 12.528835 0.000000 0.000000 0.711642 0.000000 0.000000 -0.000000 0.000000 0.000000 0.000000 -90.000000 0.000000 -2.309062 0.000000 0.000000 2.309062 0.000000 0.000000 -0.000000 0.000000 0.000000 -0.000000 90.000000 0.000000 -2.309062 0.000000 0.000000 2.309062 0.000000 0.000000 8.520406 0.000000 0.000000 1.905762 0.000000 -0.000000 -4.658285 0.000000 0.000000 -0.000000 0.000000 0.000000 8.520406 0.000000 0.000000 1.905762 0.000000 -0.000000 -4.658285 0.000000 0.000000 -0.000000 0.000000
-22.148064 126.360348 72.480167 -169.691535 -26.681339 -1.001649 -4.544125 21.100051 -1.201982 -0.574486 2.836411 -0.060720 -0.938336 4.620239 -0.113638 -3.804440 17.963529 -0.898792 0.928340 12.902522 -0.237985 1.011977 -12.149562 -0.453669 -6.753259 -8.412846 -5.405723 9.453582 15.360229 -18.045636 120.472305 -66.587047 -64.751484 6.568151 -37.782547 -67.262060 -9.287401 -4.937222 1.684584 3.180063 -9.511562 11.425181 -156.571072 -66.388307 150.230633 -28.560291 -23.661121 41.369085 -2.537462 -62.696528 -1.252156 -43.841846 74.242042 -45.084889 20.678035 35.060396 13.874178 0.000787 0.001177 0.000349 -10.255095 -50.046259 -10.461465 32.256955 76.051133 19.077054 1.277741 -0.921713 9.770980 -0.000780 0.000477 -0.000346
-22.147219 126.358979 72.479777 -169.719747 -26.660398 -1.009424 -4.535682 21.085952 -1.180481 -0.598673 2.839116 -0.050624 -0.942103 4.617196 -0.108795 -3.818286 17.957123 -0.881406 0.960820 12.877960 -0.278648 1.055116 -12.174014 -0.503162 -6.727952 -8.427662 -5.466069 9.436523 15.369334 -18.017896 120.470070 -66.559878 -64.748325 6.564822 -37.774949 -67.245021 -9.275694 -5.015968 1.656238 3.172096 -9.401814 11.390789 -156.752553 -66.350196 150.363451 -28.551273 -23.667469 41.410879 -2.545195 -62.712174 -1.224819 -43.762133 74.247450 -44.990595 20.660636 35.070919 13.861527 0.001222 -0.000437 0.000541 -10.256809 -50.065461 -10.429796 32.229414 76.055501 19.062833 1.283269 -0.922566 9.761541 0.000503 0.001058 0.000223
-22.146530 126.357889 72.478486 -169.746419 -26.642799 -1.020093 -4.527942 21.074799 -1.156021 -0.621838 2.840427 -0.042010 -0.921588 4.612247 -0.115375 -3.853336 17.953953 -0.850937 1.000554 12.854059 -0.316737 1.105261 -12.197759 -0.551753 -6.707158 -8.437380 -5.524548 9.425545 15.379715 -17.994026 120.478940 -66.532250 -64.762809 6.555904 -37.779106 -67.222975 -9.250504 -5.075488 1.618118 3.145402 -9.311892 11.364808 -156.924604 -66.305618 150.506532 -28.537524 -23.669590 41.454760 -2.565815 -62.725523 -1.187959 -43.723482 74.245753 -44.937963 20.660360 35.081185 13.838846 0.003064 -0.002337 0.001357 -10.258646 -50.080564 -10.405247 32.261188 76.055226 19.123594 1.277988 -0.927669 9.735612 0.006788 0.004133 0.003008
-22.147156 126.356713 72.477359 -169.770344 -26.624160 -1.025258 -4.594701 21.071496 -1.145557 -0.570350 2.829079 -0.056094 -0.911030 4.608385 -0.117581 -3.893580 17.952880 -0.820019 1.050048 12.828176 -0.352774 1.165238 -12.223407 -0.600506 -6.706165 -8.430882 -5.577849 9.461851 15.365825 -17.987778 120.463022 -66.527724 -64.773926 6.539509 -37.770497 -67.204380 -9.214808 -5.127645 1.578622 3.115215 -9.230399 11.340974 -157.110933 -66.256266 150.672843 -28.516693 -23.667578 41.499028 -2.577440 -62.742121 -1.154711 -43.742236 74.231132 -44.948004 20.596347 35.101694 13.821002 -0.001765 -0.006720 -0.000782 -10.241933 -50.102574 -10.404181 32.323404 76.056221 19.207765 1.280497 -0.927856 9.729894 0.002451 0.001172 0.001086
-22.147276 126.355661 72.475874 -169.790233 -26.607112 -1.035676 -4.618309 21.063974 -1.127475 -0.537454 2.821655 -0.065740 -1.003521 4.618714 -0.075993 -3.838291 17.937969 -0.853873 1.089131 12.799021 -0.354134 1.239739 -12.253863 -0.649984 -6.718981 -8.415957 -5.597630 9.478088 15.352362 -17.987242 120.452095 -66.525557 -64.788860 6.535149 -37.780302 -67.159424 -9.206920 -5.163511 1.573159 3.091861 -9.159773 11.316660 -157.319640 -66.211676 150.862591 -28.492273 -23.672125 41.542782 -2.611499 -62.753095 -1.121734 -43.712575 74.222962 -44.912256 20.646303 35.110297 13.825583 -0.000500 -0.007685 -0.000222 -10.245228 -50.119547 -10.378965 32.359329 76.059639 19.253437 1.276784 -0.931847 9.726090 0.002748 0.001199 0.001218
-22.148107 126.355326 72.473142 -169.801250 -26.599956 -1.046325 -4.652467 21.066525 -1.113512 -0.539759 2.820240 -0.063427 -1.011659 4.618006 -0.071563 -3.878809 17.933699 -0.829592 1.181981 12.760677 -0.402221 1.331623 -12.291504 -0.701578 -6.661212 -8.406627 -5.662182 9.456874 15.344701 -17.982840 120.497271 -66.492786 -64.818738 6.519646 -37.779332 -67.147514 -9.143508 -5.198590 1.525822 3.080882 -9.103346 11.289599 -157.483844 -66.174919 151.019947 -28.450308 -23.700133 41.583123 -2.652997 -62.752981 -1.091980 -43.723924 74.208088 -44.919160 20.718294 35.110823 13.832943 0.003191 -0.008337 0.001413 -10.249047 -50.127696 -10.366368 32.414252 76.067406 19.327604 1.268776 -0.944590 9.712493 0.007971 0.002763 0.003532
-22.149641 126.354812 72.471057 -169.812528 -26.591344 -1.050424 -4.692722 21.068625 -1.106230 -0.539767 2.817382 -0.063667 -1.023571 4.621000 -0.064860 -3.923230 17.931777 -0.807242 1.292552 12.714319 -0.450046 1.441780 -12.336614 -0.757449 -6.595795 -8.394979 -5.726209 9.391431 15.368149 -17.975405 120.647280 -66.420029 -64.934120 6.504817 -37.777411 -67.165040 -9.065308 -5.227574 1.471663 3.074790 -9.060187 11.266179 -157.532540 -66.141556 151.087173 -28.378492 -23.757518 41.622053 -2.678545 -62.755781 -1.075382 -43.751442 74.194698 -44.940448 20.724901 35.109977 13.846699 0.000465 -0.011257 0.000206 -10.240013 -50.138684 -10.371137 32.457575 76.072652 19.389577 1.269135 -0.954860 9.708753 0.009012 0.002271 0.003993
-22.150145 126.354038 72.469690 -169.827687 -26.579912 -1.056053 -4.718062 21.067039 -1.095471 -0.611406 2.833751 -0.038480 -0.978819 4.610520 -0.083469 -3.910701 17.920456 -0.815419 1.374806 12.675174 -0.448461 1.569638 -12.386086 -0.816664 -6.587318 -8.360393 -5.741339 9.373090 15.361801 -17.990961 120.717331 -66.408419 -65.027417 6.502252 -37.778973 -67.131920 -9.028966 -5.239877 1.447925 3.066335 -9.022258 11.256955 -157.771235 -66.105956 151.297928 -28.387438 -23.761540 41.669010 -2.713816 -62.755705 -1.048468 -43.755629 74.181300 -44.944508 20.789912 35.096434 13.856245 -0.002756 -0.007506 -0.001221 -10.234245 -50.152963 -10.369133 32.485417 76.081006 19.435185 1.277795 -0.963574 9.701029 0.009427 0.003388 0.004177
-22.149932 126.353222 72.468696 -169.844757 -26.569291 -1.062453 -4.750099 21.068123 -1.086622 -0.615824 2.835192 -0.036484 -0.986004 4.612685 -0.080295 -3.958682 17.926363 -0.795835 1.520248 12.623161 -0.492869 1.710728 -12.432554 -0.874540 -6.517043 -8.334868 -5.792533 9.355129 15.352580 -18.012962 120.796020 -66.429610 -65.176690 6.497784 -37.771413 -67.066356 -8.951813 -5.259374 1.408335 3.089554 -9.017817 11.227333 -158.102703 -66.080600 151.578940 -28.438395 -23.728539 41.707317 -2.734469 -62.761603 -1.015748 -43.808915 74.172273 -44.992224 20.813289 35.084136 13.846098 0.000659 -0.003293 0.000292 -10.221852 -50.177727 -10.382900 32.581548 76.091460 19.555562 1.292932 -0.963562 9.694898 0.001563 -0.002317 0.000693
-22.147139 126.352134 72.468415 -169.872276 -26.556334 -1.076484 -4.773245 21.064880 -1.068000 -0.607084 2.832354 -0.038351 -0.981790 4.614304 -0.079661 -4.003893 17.931182 -0.777227 1.673935 12.581967 -0.527022 1.861976 -12.467674 -0.926691 -6.449373 -8.324418 -5.837569 9.331552 15.377529 -18.023643 120.909143 -66.409138 -65.316323 6.494050 -37.768810 -67.081806 -8.926458 -5.227666 1.390999 3.150501 -9.052041 11.191335 -158.212336 -66.059854 151.684114 -28.435260 -23.729641 41.731788 -2.776520 -62.765619 -0.946821 -43.819731 74.171311 -44.992972 20.805216 35.064414 13.820306 0.007514 0.002615 0.003329 -10.230270 -50.196219 -10.350827 32.639020 76.099776 19.618811 1.296230 -0.966121 9.695227 -0.003026 -0.003958 -0.001341
-22.147432 126.351625 72.467942 -169.881970 -26.553795 -1.078534 -4.798660 21.060054 -1.071568 -0.593261 2.835244 -0.038195 -0.974487 4.615003 -0.080488 -4.034505 17.925726 -0.767206 1.822869 12.562046 -0.536861 2.022065 -12.486715 -0.971926 -6.440258 -8.243009 -5.828710 9.316282 15.358935 -18.068043 121.032429 -66.374858 -65.451983 6.497641 -37.769202 -67.120996 -8.926753 -5.167787 1.381710 3.206717 -9.072104 11.164192 -158.283682 -66.016221 151.754412 -28.440017 -23.725557 41.733443 -2.795350 -62.759062 -0.914553 -43.817662 74.169267 -44.985303 20.715871 35.044608 13.789077 0.005205 -0.001502 0.002306 -10.233562 -50.206697 -10.350370 32.638522 76.117519 19.629512 1.310796 -0.975789 9.687182 -0.002073 -0.002839 -0.000918
-22.145838 126.351402 72.467193 -169.905494 -26.557837 -1.083988 -4.801385 21.056347 -1.066471 -0.582418 2.842431 -0.035330 -0.994262 4.613361 -0.076638 -4.025146 17.916666 -0.770692 1.980576 12.559574 -0.540884 2.190446 -12.487843 -1.013218 -6.441513 -8.154982 -5.800779 9.306176 15.315024 -18.122371 121.096252 -66.386212 -65.557698 6.508557 -37.780678 -67.188199 -8.936974 -5.087041 1.373206 3.248905 -9.140884 11.147043 -158.286837 -66.009134 151.753179 -28.420161 -23.731428 41.765475 -2.836642 -62.745125 -0.850603 -43.781129 74.163766 -44.956336 20.688985 35.040549 13.780878 0.000727 0.000004 0.000322 -10.234109 -50.207409 -10.335759 32.622385 76.146492 19.632949 1.324148 -1.000578 9.668770 0.003449 0.001787 0.001528
-22.144065 126.351201 72.467007 -169.939419 -26.565021 -1.083541 -4.793514 21.053406 -1.064756 -0.607088 2.831182 -0.037109 -0.990922 4.611854 -0.075998 -3.995379 17.928768 -0.772052 2.149150 12.571851 -0.543118 2.370281 -12.473694 -1.055180 -6.439853 -8.084350 -5.765954 9.273147 15.326227 -18.182080 121.281413 -66.399949 -65.823029 6.498826 -37.771366 -67.155643 -8.954803 -4.981699 1.364526 3.292325 -9.252260 11.135294 -158.285217 -66.014989 151.750363 -28.427686 -23.700960 41.777095 -2.863877 -62.734473 -0.795857 -43.746886 74.163344 -44.930241 20.724921 35.031221 13.775562 0.002007 -0.000852 0.000889 -10.224684 -50.205257 -10.323994 32.648059 76.163065 19.670803 1.330117 -1.013907 9.657726 0.004470 0.002513 0.001980
-22.141175 126.351423 72.466443 -169.987940 -26.580478 -1.081629 -4.770845 21.059455 -1.060767 -0.593234 2.836028 -0.033438 -0.996190 4.610290 -0.076770 -3.985280 17.931137 -0.771205 2.322818 12.593494 -0.542698 2.560584 -12.446772 -1.096312 -6.439406 -8.018566 -5.717789 9.230492 15.330397 -18.259628 121.440769 -66.414528 -66.036927 6.503727 -37.775015 -67.163386 -8.982126 -4.850356 1.355065 3.333819 -9.392533 11.132983 -158.283524 -66.025385 151.760203 -28.442018 -23.674145 41.722950 -2.899536 -62.715599 -0.722068 -43.718033 74.164340 -44.903722 20.740905 35.024740 13.750080 0.005478 0.000059 0.002427 -10.206725 -50.194220 -10.308434 32.693024 76.177890 19.727356 1.329388 -1.024812 9.650213 0.001500 0.001239 0.000665
